<svg version="1.1" id="Layer_1" xmlns="http://www.w3.org/2000/svg" xmlns:xlink="http://www.w3.org/1999/xlink" x="0px" y="0px"
	 width="100%" viewBox="0 0 687 565" enable-background="new 0 0 687 565" xml:space="preserve">
<path fill="#0A0619" opacity="1.000000" stroke="none" 
	d="
M399.000000,566.000000 
	C266.000031,566.000000 133.500046,566.000000 1.000053,566.000000 
	C1.000036,377.666718 1.000036,189.333450 1.000018,1.000129 
	C229.999893,1.000086 458.999786,1.000086 687.999756,1.000043 
	C687.999878,189.333206 687.999878,377.666412 687.999939,565.999817 
	C591.833313,566.000000 495.666656,566.000000 399.000000,566.000000 
M153.226974,76.638138 
	C141.979141,84.408272 136.701965,95.085663 136.696671,108.795731 
	C136.646652,238.236542 136.486710,367.677307 136.358673,497.118103 
	C136.357101,498.703125 136.358475,500.288116 136.358475,502.011780 
	C159.884460,502.011780 182.701843,502.011780 205.519226,502.011780 
	C310.822540,502.011749 416.125824,502.014526 521.429138,501.994812 
	C523.915955,501.994354 526.435974,501.955017 528.884399,501.573822 
	C548.512268,498.517761 560.358582,481.338226 560.308777,463.350159 
	C559.985840,346.717651 560.142029,230.083817 560.156250,113.450417 
	C560.156494,111.460777 560.426758,109.471336 560.431091,107.481491 
	C560.457947,95.205429 560.444580,82.929283 560.444580,70.738838 
	C545.623718,70.738838 531.342834,70.738831 517.061951,70.738838 
	C403.427704,70.738914 289.793427,70.762001 176.159210,70.689796 
	C168.175369,70.684731 160.652130,71.853897 153.226974,76.638138 
M8.294479,154.208191 
	C6.853448,154.072128 5.308204,153.588165 4.023215,153.973053 
	C3.516671,154.124771 3.170363,156.367813 3.536347,157.372513 
	C3.817631,158.144684 6.032983,159.068130 6.179568,158.895844 
	C7.195850,157.701477 7.895640,156.237778 8.294479,154.208191 
z"/>
<path fill="#FEFEFE" opacity="1.000000" stroke="none" 
	d="
M153.527985,76.423721 
	C160.652130,71.853897 168.175369,70.684731 176.159210,70.689796 
	C289.793427,70.762001 403.427704,70.738914 517.061951,70.738838 
	C531.342834,70.738831 545.623718,70.738838 560.444580,70.738838 
	C560.444580,82.929283 560.457947,95.205429 560.431091,107.481491 
	C560.426758,109.471336 560.156494,111.460777 560.156250,113.450417 
	C560.142029,230.083817 559.985840,346.717651 560.308777,463.350159 
	C560.358582,481.338226 548.512268,498.517761 528.884399,501.573822 
	C526.435974,501.955017 523.915955,501.994354 521.429138,501.994812 
	C416.125824,502.014526 310.822540,502.011749 205.519226,502.011780 
	C182.701843,502.011780 159.884460,502.011780 136.358475,502.011780 
	C136.358475,500.288116 136.357101,498.703125 136.358673,497.118103 
	C136.486710,367.677307 136.646652,238.236542 136.696671,108.795731 
	C136.701965,95.085663 141.979141,84.408272 153.527985,76.423721 
M239.173187,462.411377 
	C241.123245,462.835266 243.057373,463.361359 245.025711,463.667877 
	C280.783325,469.236481 310.393402,458.147858 332.097534,429.245026 
	C351.092621,403.949799 354.643463,375.183777 343.329590,345.922089 
	C331.043243,314.145233 307.083588,294.876495 273.056824,290.189606 
	C246.503586,286.532135 222.603729,293.751312 202.470306,312.019196 
	C179.163193,333.166687 169.772156,359.911102 174.524536,390.411530 
	C180.284424,427.377991 202.694427,451.077881 239.173187,462.411377 
M257.999542,171.500000 
	C257.999542,207.082809 257.999542,242.665619 257.999542,278.237793 
	C265.559204,278.237793 272.522919,278.237793 280.057770,278.237793 
	C280.057770,264.048157 280.057770,249.997421 280.057770,236.165985 
	C290.034515,236.165985 299.436462,236.165985 309.234741,236.165985 
	C309.234741,250.407669 309.234741,264.321381 309.234741,278.218170 
	C316.600220,278.218170 323.555725,278.218170 330.550446,278.218170 
	C330.709442,277.599487 330.934937,277.131744 330.934906,276.664032 
	C330.930756,231.532532 331.074463,186.399567 330.669373,141.271515 
	C330.621582,135.947601 328.408875,130.169220 325.731598,125.431068 
	C317.467072,110.804672 300.330200,104.062454 284.705597,108.491539 
	C268.784821,113.004578 258.079010,127.225502 258.006592,144.020355 
	C257.968536,152.846741 257.999634,161.673447 257.999542,171.500000 
M383.843994,390.500061 
	C383.843994,356.760651 383.843994,323.021240 383.843994,289.450073 
	C375.891968,289.450073 368.635681,289.450073 361.156006,289.450073 
	C361.156006,291.550812 361.156006,293.363892 361.156006,295.176941 
	C361.156006,336.997253 361.134705,378.817596 361.188049,420.637848 
	C361.193542,424.954773 361.441254,429.293823 361.921783,433.583954 
	C364.604126,457.529510 393.813354,472.762085 415.175476,461.449036 
	C429.890686,453.656036 436.583954,441.317474 436.550903,424.838531 
	C436.463013,381.019012 436.523102,337.199188 436.511047,293.379486 
	C436.510681,292.084778 436.361542,290.790131 436.278259,289.438751 
	C428.779114,289.438751 421.543518,289.438751 413.992157,289.438751 
	C413.992157,291.521362 413.992157,293.330048 413.992157,295.138702 
	C413.992126,338.458557 413.812531,381.779694 414.121582,425.097351 
	C414.196472,435.593140 407.379089,442.535461 399.060303,442.684631 
	C391.100006,442.827393 383.190002,436.322449 383.728668,424.984131 
	C384.257812,413.846100 383.843994,402.663239 383.843994,390.500061 
M173.160736,213.499924 
	C173.160736,235.063431 173.160736,256.626923 173.160736,278.138733 
	C180.827011,278.138733 187.748444,278.138733 195.083481,278.138733 
	C195.083481,263.970978 195.083481,250.052414 195.083481,236.060852 
	C204.918304,236.060852 214.330963,236.060852 224.185867,236.060852 
	C224.185867,250.191055 224.185867,264.107697 224.185867,277.990326 
	C231.842636,277.990326 239.048203,277.990326 246.048737,277.990326 
	C246.048737,220.872940 246.048737,164.160416 246.048737,107.422691 
	C238.618530,107.422691 231.537170,107.422691 223.983490,107.422691 
	C223.983490,143.051041 223.983490,178.419876 223.983490,213.727386 
	C214.092255,213.727386 204.679276,213.727386 194.770706,213.727386 
	C194.770706,178.089249 194.770706,142.717682 194.770706,107.405273 
	C187.340622,107.405273 180.414307,107.405273 173.160736,107.405273 
	C173.160736,142.599152 173.160736,177.549530 173.160736,213.499924 
M342.161102,197.499924 
	C342.161102,224.396240 342.161102,251.292557 342.161102,278.042511 
	C349.988007,278.042511 357.067261,278.042511 364.394135,278.042511 
	C364.394135,275.882202 364.394135,274.067688 364.394135,272.253143 
	C364.394135,230.933243 364.385071,189.613327 364.416565,148.293442 
	C364.418457,145.807037 364.510040,143.277725 364.959991,140.842300 
	C366.631927,131.792999 376.555695,126.838066 384.913757,130.689774 
	C392.055176,133.980804 393.620300,140.101028 393.616608,147.162094 
	C393.594727,188.981842 393.605865,230.801590 393.605865,272.621338 
	C393.605865,274.400879 393.605865,276.180420 393.605865,278.172668 
	C401.211212,278.172668 408.295013,278.172668 415.838898,278.172668 
	C415.838898,276.202972 415.838898,274.405029 415.838898,272.607086 
	C415.838898,233.453140 415.870575,194.299133 415.802521,155.145309 
	C415.793030,149.670013 415.546753,144.169098 414.977081,138.725357 
	C412.617706,116.179451 387.146942,99.386353 363.230957,110.907074 
	C348.858490,117.830521 342.291565,130.228363 342.186523,146.016479 
	C342.074615,162.843597 342.161194,179.672043 342.161102,197.499924 
M523.831848,215.822464 
	C523.403015,215.236969 522.981873,214.148026 522.544128,214.141281 
	C515.607971,214.034225 508.669739,214.065994 501.328857,214.065994 
	C501.328857,228.013779 501.328857,241.412521 501.328857,254.849960 
	C473.649872,251.390488 450.486664,225.078751 449.048248,195.685669 
	C448.324646,180.899353 452.260376,167.266037 461.126343,155.466431 
	C474.454803,137.727859 492.829590,129.469254 514.663330,129.186783 
	C514.663330,121.472420 514.663330,114.387146 514.663330,107.142159 
	C477.541138,108.463158 449.498932,124.344788 434.379089,158.352371 
	C420.918884,188.627075 424.500000,218.436172 444.801910,244.833344 
	C464.498413,270.443359 491.408905,280.853729 523.838379,277.954773 
	C523.838379,257.394684 523.838379,237.083710 523.831848,215.822464 
M497.170380,391.500061 
	C497.170380,365.069397 497.170380,338.638702 497.170380,311.658875 
	C506.216309,311.658875 514.757324,311.658875 523.193604,311.658875 
	C523.193604,303.850006 523.193604,296.597626 523.193604,289.520874 
	C498.160858,289.520874 473.446808,289.520874 448.797607,289.520874 
	C448.797607,297.138702 448.797607,304.394501 448.797607,311.988800 
	C457.541260,311.988800 465.978485,311.988800 474.912201,311.988800 
	C474.912201,363.188202 474.912201,414.042511 474.912201,464.799744 
	C482.635529,464.799744 489.848633,464.799744 497.170380,464.799744 
	C497.170380,440.452911 497.170380,416.476501 497.170380,391.500061 
z"/>
<path fill="#CA181B" opacity="1.000000" stroke="none" 
	d="
M8.495745,154.534363 
	C7.895640,156.237778 7.195850,157.701477 6.179568,158.895844 
	C6.032983,159.068130 3.817631,158.144684 3.536347,157.372513 
	C3.170363,156.367813 3.516671,154.124771 4.023215,153.973053 
	C5.308204,153.588165 6.853448,154.072128 8.495745,154.534363 
z"/>
<path fill="#0D091C" opacity="1.000000" stroke="none" 
	d="
M238.776672,462.309143 
	C202.694427,451.077881 180.284424,427.377991 174.524536,390.411530 
	C169.772156,359.911102 179.163193,333.166687 202.470306,312.019196 
	C222.603729,293.751312 246.503586,286.532135 273.056824,290.189606 
	C307.083588,294.876495 331.043243,314.145233 343.329590,345.922089 
	C354.643463,375.183777 351.092621,403.949799 332.097534,429.245026 
	C310.393402,458.147858 280.783325,469.236481 245.025711,463.667877 
	C243.057373,463.361359 241.123245,462.835266 238.776672,462.309143 
M196.554764,387.698639 
	C197.586243,391.715668 198.245743,395.873932 199.709030,399.726959 
	C209.883331,426.517273 236.231644,445.302246 268.097992,442.312805 
	C297.274567,439.575684 323.026337,415.350830 326.286407,386.183990 
	C329.131805,360.726807 320.255554,340.201569 300.239624,324.421692 
	C280.913544,309.185669 249.095444,307.571045 228.260620,320.752350 
	C203.933151,336.143341 193.422852,358.243683 196.554764,387.698639 
z"/>
<path fill="#0B071A" opacity="1.000000" stroke="none" 
	d="
M257.999542,171.000000 
	C257.999634,161.673447 257.968536,152.846741 258.006592,144.020355 
	C258.079010,127.225502 268.784821,113.004578 284.705597,108.491539 
	C300.330200,104.062454 317.467072,110.804672 325.731598,125.431068 
	C328.408875,130.169220 330.621582,135.947601 330.669373,141.271515 
	C331.074463,186.399567 330.930756,231.532532 330.934906,276.664032 
	C330.934937,277.131744 330.709442,277.599487 330.550446,278.218170 
	C323.555725,278.218170 316.600220,278.218170 309.234741,278.218170 
	C309.234741,264.321381 309.234741,250.407669 309.234741,236.165985 
	C299.436462,236.165985 290.034515,236.165985 280.057770,236.165985 
	C280.057770,249.997421 280.057770,264.048157 280.057770,278.237793 
	C272.522919,278.237793 265.559204,278.237793 257.999542,278.237793 
	C257.999542,242.665619 257.999542,207.082809 257.999542,171.000000 
M305.253998,134.315689 
	C300.494995,129.513947 295.034393,127.667778 288.592438,130.594330 
	C281.995026,133.591492 279.884918,139.058716 279.925079,145.982468 
	C280.047791,167.143951 279.964905,188.306625 279.978912,209.468826 
	C279.979858,210.904678 280.121033,212.340424 280.194336,213.726578 
	C289.954010,213.726578 299.363953,213.726578 309.011047,213.726578 
	C309.011047,189.988358 309.117279,166.519516 308.868042,143.054459 
	C308.838959,140.318390 306.844727,137.603195 305.253998,134.315689 
z"/>
<path fill="#0F0B1E" opacity="1.000000" stroke="none" 
	d="
M383.843994,391.000061 
	C383.843994,402.663239 384.257812,413.846100 383.728668,424.984131 
	C383.190002,436.322449 391.100006,442.827393 399.060303,442.684631 
	C407.379089,442.535461 414.196472,435.593140 414.121582,425.097351 
	C413.812531,381.779694 413.992126,338.458557 413.992157,295.138702 
	C413.992157,293.330048 413.992157,291.521362 413.992157,289.438751 
	C421.543518,289.438751 428.779114,289.438751 436.278259,289.438751 
	C436.361542,290.790131 436.510681,292.084778 436.511047,293.379486 
	C436.523102,337.199188 436.463013,381.019012 436.550903,424.838531 
	C436.583954,441.317474 429.890686,453.656036 415.175476,461.449036 
	C393.813354,472.762085 364.604126,457.529510 361.921783,433.583954 
	C361.441254,429.293823 361.193542,424.954773 361.188049,420.637848 
	C361.134705,378.817596 361.156006,336.997253 361.156006,295.176941 
	C361.156006,293.363892 361.156006,291.550812 361.156006,289.450073 
	C368.635681,289.450073 375.891968,289.450073 383.843994,289.450073 
	C383.843994,323.021240 383.843994,356.760651 383.843994,391.000061 
z"/>
<path fill="#0D091C" opacity="1.000000" stroke="none" 
	d="
M173.160736,212.999908 
	C173.160736,177.549530 173.160736,142.599152 173.160736,107.405273 
	C180.414307,107.405273 187.340622,107.405273 194.770706,107.405273 
	C194.770706,142.717682 194.770706,178.089249 194.770706,213.727386 
	C204.679276,213.727386 214.092255,213.727386 223.983490,213.727386 
	C223.983490,178.419876 223.983490,143.051041 223.983490,107.422691 
	C231.537170,107.422691 238.618530,107.422691 246.048737,107.422691 
	C246.048737,164.160416 246.048737,220.872940 246.048737,277.990326 
	C239.048203,277.990326 231.842636,277.990326 224.185867,277.990326 
	C224.185867,264.107697 224.185867,250.191055 224.185867,236.060852 
	C214.330963,236.060852 204.918304,236.060852 195.083481,236.060852 
	C195.083481,250.052414 195.083481,263.970978 195.083481,278.138733 
	C187.748444,278.138733 180.827011,278.138733 173.160736,278.138733 
	C173.160736,256.626923 173.160736,235.063431 173.160736,212.999908 
z"/>
<path fill="#0D091C" opacity="1.000000" stroke="none" 
	d="
M342.161102,196.999908 
	C342.161194,179.672043 342.074615,162.843597 342.186523,146.016479 
	C342.291565,130.228363 348.858490,117.830521 363.230957,110.907074 
	C387.146942,99.386353 412.617706,116.179451 414.977081,138.725357 
	C415.546753,144.169098 415.793030,149.670013 415.802521,155.145309 
	C415.870575,194.299133 415.838898,233.453140 415.838898,272.607086 
	C415.838898,274.405029 415.838898,276.202972 415.838898,278.172668 
	C408.295013,278.172668 401.211212,278.172668 393.605865,278.172668 
	C393.605865,276.180420 393.605865,274.400879 393.605865,272.621338 
	C393.605865,230.801590 393.594727,188.981842 393.616608,147.162094 
	C393.620300,140.101028 392.055176,133.980804 384.913757,130.689774 
	C376.555695,126.838066 366.631927,131.792999 364.959991,140.842300 
	C364.510040,143.277725 364.418457,145.807037 364.416565,148.293442 
	C364.385071,189.613327 364.394135,230.933243 364.394135,272.253143 
	C364.394135,274.067688 364.394135,275.882202 364.394135,278.042511 
	C357.067261,278.042511 349.988007,278.042511 342.161102,278.042511 
	C342.161102,251.292557 342.161102,224.396240 342.161102,196.999908 
z"/>
<path fill="#0D091C" opacity="1.000000" stroke="none" 
	d="
M523.835083,216.297607 
	C523.838379,237.083710 523.838379,257.394684 523.838379,277.954773 
	C491.408905,280.853729 464.498413,270.443359 444.801910,244.833344 
	C424.500000,218.436172 420.918884,188.627075 434.379089,158.352371 
	C449.498932,124.344788 477.541138,108.463158 514.663330,107.142159 
	C514.663330,114.387146 514.663330,121.472420 514.663330,129.186783 
	C492.829590,129.469254 474.454803,137.727859 461.126343,155.466431 
	C452.260376,167.266037 448.324646,180.899353 449.048248,195.685669 
	C450.486664,225.078751 473.649872,251.390488 501.328857,254.849960 
	C501.328857,241.412521 501.328857,228.013779 501.328857,214.065994 
	C508.669739,214.065994 515.607971,214.034225 522.544128,214.141281 
	C522.981873,214.148026 523.403015,215.236969 523.835083,216.297607 
z"/>
<path fill="#0D091B" opacity="1.000000" stroke="none" 
	d="
M497.170380,392.000092 
	C497.170380,416.476501 497.170380,440.452911 497.170380,464.799744 
	C489.848633,464.799744 482.635529,464.799744 474.912201,464.799744 
	C474.912201,414.042511 474.912201,363.188202 474.912201,311.988800 
	C465.978485,311.988800 457.541260,311.988800 448.797607,311.988800 
	C448.797607,304.394501 448.797607,297.138702 448.797607,289.520874 
	C473.446808,289.520874 498.160858,289.520874 523.193604,289.520874 
	C523.193604,296.597626 523.193604,303.850006 523.193604,311.658875 
	C514.757324,311.658875 506.216309,311.658875 497.170380,311.658875 
	C497.170380,338.638702 497.170380,365.069397 497.170380,392.000092 
z"/>
<path fill="#FEFEFE" opacity="1.000000" stroke="none" 
	d="
M196.478287,387.261719 
	C193.422852,358.243683 203.933151,336.143341 228.260620,320.752350 
	C249.095444,307.571045 280.913544,309.185669 300.239624,324.421692 
	C320.255554,340.201569 329.131805,360.726807 326.286407,386.183990 
	C323.026337,415.350830 297.274567,439.575684 268.097992,442.312805 
	C236.231644,445.302246 209.883331,426.517273 199.709030,399.726959 
	C198.245743,395.873932 197.586243,391.715668 196.478287,387.261719 
z"/>
<path fill="#FFFFFF" opacity="1.000000" stroke="none" 
	d="
M305.507782,134.597015 
	C306.844727,137.603195 308.838959,140.318390 308.868042,143.054459 
	C309.117279,166.519516 309.011047,189.988358 309.011047,213.726578 
	C299.363953,213.726578 289.954010,213.726578 280.194336,213.726578 
	C280.121033,212.340424 279.979858,210.904678 279.978912,209.468826 
	C279.964905,188.306625 280.047791,167.143951 279.925079,145.982468 
	C279.884918,139.058716 281.995026,133.591492 288.592438,130.594330 
	C295.034393,127.667778 300.494995,129.513947 305.507782,134.597015 
z"/>
</svg>